<?xml version="1.0" encoding="utf-8"?>
<!-- Generator: Adobe Illustrator 21.0.2, SVG Export Plug-In . SVG Version: 6.00 Build 0)  -->
<svg version="1.1" id="Layer_1" xmlns="http://www.w3.org/2000/svg" xmlns:xlink="http://www.w3.org/1999/xlink" x="0px" y="0px"
	 viewBox="0 0 234 234" style="enable-background:new 0 0 234 234;" xml:space="preserve">
<style type="text/css">
	.st0{filter:url(#Adobe_OpacityMaskFilter);}
	.st1{fill:#020000;}
	.st2{mask:url(#SVGID_1_);fill:#FFF5F4;}
	.st3{fill:#FFF1F1;}
</style>
<defs>
	<filter id="Adobe_OpacityMaskFilter" filterUnits="userSpaceOnUse" x="0" y="0" width="234" height="234">
		<feFlood  style="flood-color:white;flood-opacity:1" result="back"/>
		<feBlend  in="SourceGraphic" in2="back" mode="normal"/>
	</filter>
</defs>
<mask maskUnits="userSpaceOnUse" x="0" y="0" width="234" height="234" id="SVGID_1_">
	<g class="st0">
		<path class="st1" d="M124.3,19.5c2.1,3.5,6.3,4.4,9,7.4c5.7,6.3,7.7,15.7,4.4,23.6c-3.8,9.2-10.5,13.4-19.7,14.2
			C101.3,66,90.8,49.6,95.3,35.3c1.7-5.4,5.3-9,9.6-12.3c1.5-1.1,4-1.1,4.4-3.6C114.3,19.5,119.3,19.5,124.3,19.5z"/>
		<path class="st1" d="M213.2,142.6c2.2,5.1-1.6,7.4-5.7,9.8c-29,16.9-57.9,33.9-86.8,50.9c-2.8,1.6-5.1,1.6-7.9,0
			c-30-17.7-60.1-35.4-90.2-53.1c-1.7-1-2.5-2-2.5-4.3c0.5-26,8.8-48.9,27.6-67.3c10-9.8,22-16.6,34.7-22c2.7-1.2,4.8-1.1,7.5,1.4
			c16.3,15.2,37.3,15.1,53.7,0c2.4-2.2,4.3-2.6,7-1.5c33.8,14,55.7,37.7,61.6,74.7c0.3,1.8,0.7,3.6,0.9,5.4
			C213.3,138.4,213.2,140.2,213.2,142.6z M180.6,142.1c-0.9-16.7-5.7-31.2-16.7-43.2c-3.5-3.9-5.5-3.8-8.9-0.1
			c-12.5,13.5-23.5,28.3-35.2,42.5c-2.5,3.1-3.8,3.7-6.3,0.2c-10.9-15.3-23.3-29.4-35.8-43.3c-3.2-3.6-4.8-3.4-7.4,0
			c-9.8,12.7-16.7,26.6-17.4,43c-0.1,3.5,0.6,5.8,3.1,8.2c16.9,16,34.7,30.9,53,45.2c7.2,5.6,7.3,5.8,14.3,0.2
			c18.5-14.6,37-29.2,54.2-45.2C180,147.2,181.5,144.9,180.6,142.1z M111.1,109.9c-0.1,0-0.2,0-0.3,0c0.2,3.1,0.3,6.2,0.8,9.3
			c0.5,3.5,1.7,8.1,5.1,8.2c3.5,0.1,3.9-4.7,4.5-7.9c2-10.2-0.9-20.5-0.4-30.7c0.2-3.6-3-2.1-4.8-2.4c-2.3-0.3-3.6,0.3-3.7,3.2
			C112.1,96.4,111.5,103.2,111.1,109.9z M115.5,84.8c2,0,3,0,3.9,0c2.6,0,3.7-2,3.6-3.8c-0.1-2.1-2.3-1.1-3.6-1.3c-2-0.2-4-0.1-6,0
			c-1,0.1-2.7-0.5-2.8,1.2c-0.1,1.4,0.6,3,2.1,3.5C113.9,84.9,115.2,84.8,115.5,84.8z"/>
	</g>
</mask>
<circle class="st2" cx="117" cy="117" r="117"/>
<g>
	<path class="st3" d="M71.3,214.5c0.2-1.9,1.1-2.8,3.2-3.1c3.3-0.4,6.5-1,9.9-1c20.5,0.1,40.9,0.1,61.4,0c3.7,0,7.2,1,10.9,1.1
		c2,0,2.4,1.4,2.7,2.9C130,214.5,100.6,214.5,71.3,214.5z"/>
	<path class="st3" d="M180.6,142.1c0.9,2.8-0.6,5.1-3.1,7.4c-17.3,16.1-35.8,30.6-54.2,45.2c-7,5.6-7.1,5.4-14.3-0.2
		c-18.3-14.3-36.1-29.2-53-45.2c-2.5-2.4-3.3-4.7-3.1-8.2c0.6-16.5,7.5-30.3,17.4-43c2.6-3.4,4.2-3.7,7.4,0
		c12.5,13.9,24.9,28,35.8,43.3c2.5,3.5,3.7,2.9,6.3-0.2c11.7-14.2,22.7-29,35.2-42.5c3.4-3.7,5.4-3.7,8.9,0.1
		C174.8,110.9,179.7,125.4,180.6,142.1z"/>
	<path class="st3" d="M111.1,109.9c0.4-6.8,1-13.5,1.2-20.3c0.1-2.8,1.4-3.5,3.7-3.2c1.8,0.3,5-1.3,4.8,2.4
		c-0.5,10.3,2.3,20.5,0.4,30.7c-0.6,3.2-1,8-4.5,7.9c-3.4-0.1-4.6-4.8-5.1-8.2c-0.5-3.1-0.5-6.2-0.8-9.3
		C110.9,109.9,111,109.9,111.1,109.9z"/>
	<path class="st3" d="M115.5,84.8c-0.2,0-1.6,0.1-2.8-0.4c-1.5-0.6-2.2-2.1-2.1-3.5c0.1-1.6,1.8-1.1,2.8-1.2c2-0.1,4-0.2,6,0
		c1.3,0.1,3.6-0.8,3.6,1.3c0.1,1.9-1,3.8-3.6,3.8C118.4,84.8,117.5,84.8,115.5,84.8z"/>
</g>
</svg>
