<?xml version="1.0" encoding="utf-8"?>
<!-- Generator: Adobe Illustrator 21.0.2, SVG Export Plug-In . SVG Version: 6.00 Build 0)  -->
<svg version="1.1" id="Capa_1" xmlns="http://www.w3.org/2000/svg" xmlns:xlink="http://www.w3.org/1999/xlink" x="0px" y="0px"
	 viewBox="0 0 512 512" style="enable-background:new 0 0 512 512;" xml:space="preserve">
<style type="text/css">
	.st0{fill:#666666;}
</style>
<g>
	<g>
		<path class="st0" d="M502,10.2H10c-5.5,0-10,4.5-10,10v102.9c0,5.5,4.5,10,10,10h492c5.5,0,10-4.5,10-10V20.2
			C512,14.7,507.5,10.2,502,10.2z M492,113.1H20V30.2h472V113.1z"/>
	</g>
</g>
<g>
	<g>
		<path class="st0" d="M469.4,90.4l-8.2-8.2c2.2-4.4,3.4-9.3,3.4-14.4c0-8.5-3.3-16.6-9.4-22.6c-12.5-12.5-32.7-12.5-45.2,0
			c-6,6-9.4,14.1-9.4,22.6s3.3,16.6,9.4,22.6c6,6,14.1,9.4,22.6,9.4c5.1,0,10-1.2,14.4-3.4l8.2,8.2c2,2,4.5,2.9,7.1,2.9
			s5.1-1,7.1-2.9C473.3,100.6,473.3,94.3,469.4,90.4z M441.2,76.3c-2.3,2.3-5.3,3.5-8.4,3.5s-6.2-1.2-8.4-3.5
			c-2.3-2.3-3.5-5.3-3.5-8.4s1.2-6.2,3.5-8.4c2.3-2.3,5.4-3.5,8.4-3.5s6.1,1.2,8.4,3.5c2.3,2.3,3.5,5.3,3.5,8.4S443.4,74,441.2,76.3
			z"/>
	</g>
</g>
<g>
	<g>
		<path class="st0" d="M358.3,87.8c-0.1-0.6-0.3-1.3-0.6-1.9c-0.3-0.6-0.6-1.2-0.9-1.7c-0.4-0.5-0.8-1.1-1.2-1.5s-1-0.9-1.5-1.2
			c-0.5-0.4-1.1-0.7-1.7-0.9c-0.6-0.3-1.2-0.4-1.9-0.6c-1.3-0.3-2.6-0.3-3.9,0c-0.6,0.1-1.3,0.3-1.9,0.6s-1.2,0.6-1.7,0.9
			c-0.5,0.4-1.1,0.8-1.5,1.2c-0.5,0.5-0.9,1-1.2,1.5c-0.4,0.5-0.7,1.1-0.9,1.7c-0.3,0.6-0.4,1.2-0.6,1.9c-0.1,0.6-0.2,1.3-0.2,2
			c0,0.6,0.1,1.3,0.2,1.9c0.1,0.6,0.3,1.3,0.6,1.9c0.3,0.6,0.6,1.2,0.9,1.7c0.4,0.5,0.8,1.1,1.2,1.5c0.5,0.5,1,0.9,1.5,1.2
			c0.5,0.4,1.1,0.7,1.7,0.9c0.6,0.3,1.2,0.4,1.9,0.6c0.6,0.1,1.3,0.2,2,0.2s1.3-0.1,2-0.2c0.6-0.1,1.3-0.3,1.9-0.6s1.2-0.6,1.7-0.9
			c0.5-0.4,1.1-0.8,1.5-1.2c1.9-1.9,2.9-4.4,2.9-7.1C358.5,89.1,358.5,88.5,358.3,87.8z"/>
	</g>
</g>
<g>
	<g>
		<path class="st0" d="M310.6,79.8H102.8c-5.5,0-10,4.5-10,10s4.5,10,10,10h207.8c5.5,0,10-4.5,10-10
			C320.6,84.3,316.1,79.8,310.6,79.8z"/>
	</g>
</g>
<g>
	<g>
		<path class="st0" d="M314.8,147.4H11.2c-5.5,0-10,4.5-10,10v197.2c0,5.5,4.5,10,10,10h303.6c5.5,0,10-4.5,10-10V157.4
			C324.8,151.8,320.3,147.4,314.8,147.4z M121.8,344.6H36.9l57.2-66.2l41.4,47.9L121.8,344.6z M146.8,344.6l18.6-24.9h48.5
			c5.5,0,10-4.5,10-10s-4.5-10-10-10h-33.5l7-9.4h62.8l40.7,54.2H146.8z M202.5,270.3l16.4-21.9l16.4,21.9H202.5z M304.8,329.8
			l-78-103.9c-1.9-2.5-4.9-4-8-4s-6.1,1.5-8,4l-63.1,84.1l-46.1-53.4c-1.9-2.2-4.7-3.5-7.6-3.5s-5.7,1.3-7.6,3.5l-65.3,75.7V167.4
			h283.6V329.8z"/>
	</g>
</g>
<g>
	<g>
		<path class="st0" d="M137.6,178.8c-19.5,0-35.4,15.9-35.4,35.4s15.9,35.4,35.4,35.4c19.5,0,35.4-15.9,35.4-35.4
			C173,194.7,157.1,178.8,137.6,178.8z M137.6,229.6c-8.5,0-15.4-6.9-15.4-15.4s6.9-15.4,15.4-15.4s15.4,6.9,15.4,15.4
			S146.1,229.6,137.6,229.6z"/>
	</g>
</g>
<g>
	<g>
		<path class="st0" d="M502,147.4H348.3c-5.5,0-10,4.5-10,10v197.2c0,5.5,4.5,10,10,10H502c5.5,0,10-4.5,10-10V157.4
			C512,151.8,507.5,147.4,502,147.4z M492,344.6H358.3V167.4H492V344.6z"/>
	</g>
</g>
<g>
	<g>
		<path class="st0" d="M468.7,183.8h-87.1c-5.5,0-10,4.5-10,10s4.5,10,10,10h87.1c5.5,0,10-4.5,10-10S474.2,183.8,468.7,183.8z"/>
	</g>
</g>
<g>
	<g>
		<path class="st0" d="M468.7,224h-87.1c-5.5,0-10,4.5-10,10s4.5,10,10,10h87.1c5.5,0,10-4.5,10-10C478.7,228.4,474.2,224,468.7,224
			z"/>
	</g>
</g>
<g>
	<g>
		<path class="st0" d="M468.7,264.1h-87.1c-5.5,0-10,4.5-10,10s4.5,10,10,10h87.1c5.5,0,10-4.5,10-10S474.2,264.1,468.7,264.1z"/>
	</g>
</g>
<g>
	<g>
		<path class="st0" d="M391.4,312.3c-0.1-0.6-0.3-1.3-0.6-1.9c-0.3-0.6-0.6-1.2-0.9-1.7c-0.4-0.5-0.8-1.1-1.3-1.5
			c-2.3-2.3-5.8-3.4-9-2.7c-0.6,0.1-1.3,0.3-1.9,0.6s-1.2,0.6-1.7,0.9c-0.5,0.4-1.1,0.8-1.5,1.2s-0.9,1-1.2,1.5
			c-0.4,0.5-0.7,1.1-0.9,1.7s-0.4,1.2-0.6,1.9c-0.1,0.6-0.2,1.3-0.2,1.9c0,0.7,0.1,1.3,0.2,2c0.1,0.6,0.3,1.3,0.6,1.9
			c0.3,0.6,0.6,1.2,0.9,1.7c0.4,0.5,0.8,1.1,1.2,1.5s1,0.9,1.5,1.2c0.5,0.4,1.1,0.7,1.7,0.9s1.2,0.4,1.9,0.6c0.6,0.1,1.3,0.2,2,0.2
			c2.6,0,5.2-1.1,7.1-2.9c0.5-0.5,0.9-1,1.3-1.5c0.4-0.5,0.7-1.1,0.9-1.7s0.4-1.2,0.6-1.9c0.1-0.6,0.2-1.3,0.2-2
			C391.6,313.6,391.5,312.9,391.4,312.3z"/>
	</g>
</g>
<g>
	<g>
		<path class="st0" d="M468.7,304.2h-49.2c-5.5,0-10,4.5-10,10s4.5,10,10,10h49.2c5.5,0,10-4.5,10-10S474.2,304.2,468.7,304.2z"/>
	</g>
</g>
<g>
	<g>
		<path class="st0" d="M164.9,378.8H11.2c-5.5,0-10,4.5-10,10v103c0,5.5,4.5,10,10,10h153.7c5.5,0,10-4.5,10-10v-103
			C174.9,383.2,170.4,378.8,164.9,378.8z M154.9,481.8H21.2v-83h133.7V481.8z"/>
	</g>
</g>
<g>
	<g>
		<path class="st0" d="M502,378.8H199.7c-5.5,0-10,4.5-10,10v103c0,5.5,4.5,10,10,10H502c5.5,0,10-4.5,10-10v-103
			C512,383.2,507.5,378.8,502,378.8z M492,481.8H209.7v-83H492L492,481.8L492,481.8z"/>
	</g>
</g>
<g>
	<g>
		<path class="st0" d="M255.3,438.3c-0.1-0.6-0.3-1.3-0.6-1.9c-0.3-0.6-0.6-1.2-0.9-1.7c-0.4-0.6-0.8-1.1-1.2-1.5s-1-0.9-1.5-1.2
			c-0.5-0.4-1.1-0.7-1.7-0.9c-0.6-0.3-1.2-0.5-1.9-0.6c-1.3-0.3-2.6-0.3-3.9,0c-0.6,0.1-1.3,0.3-1.9,0.6c-0.6,0.3-1.2,0.6-1.7,0.9
			c-0.6,0.4-1.1,0.8-1.5,1.2s-0.9,1-1.3,1.5c-0.4,0.5-0.7,1.1-0.9,1.7c-0.3,0.6-0.4,1.2-0.6,1.9c-0.1,0.6-0.2,1.3-0.2,2
			c0,0.6,0.1,1.3,0.2,2c0.1,0.6,0.3,1.3,0.6,1.9c0.3,0.6,0.6,1.2,0.9,1.7c0.4,0.5,0.8,1.1,1.3,1.5c1.9,1.9,4.4,2.9,7.1,2.9
			c0.6,0,1.3-0.1,1.9-0.2c0.6-0.1,1.3-0.3,1.9-0.6c0.6-0.3,1.2-0.5,1.7-0.9c0.6-0.4,1.1-0.8,1.5-1.2c0.5-0.5,0.9-1,1.2-1.5
			c0.4-0.5,0.7-1.1,0.9-1.7c0.3-0.6,0.4-1.2,0.6-1.9c0.1-0.6,0.2-1.3,0.2-2C255.5,439.6,255.4,438.9,255.3,438.3z"/>
	</g>
</g>
<g>
	<g>
		<path class="st0" d="M451.3,430.3H283.4c-5.5,0-10,4.5-10,10s4.5,10,10,10h167.9c5.5,0,10-4.5,10-10S456.8,430.3,451.3,430.3z"/>
	</g>
</g>
</svg>
