<?xml version="1.0" encoding="utf-8"?>
<!-- Generator: Adobe Illustrator 21.0.2, SVG Export Plug-In . SVG Version: 6.00 Build 0)  -->
<svg version="1.1" id="Capa_1" xmlns="http://www.w3.org/2000/svg" xmlns:xlink="http://www.w3.org/1999/xlink" x="0px" y="0px"
	 viewBox="0 0 512 512" style="enable-background:new 0 0 512 512;" xml:space="preserve">
<style type="text/css">
	.st0{fill:#666666;}
</style>
<g transform="translate(-1)">
	<g>
		<g>
			<path class="st0" d="M513,61.4c0.4-14.6-11-26.7-25.6-27.2H341.5C337.4,14.3,319.9,0,299.7,0H86.3C66.1,0,48.6,14.3,44.5,34.1
				H26.6C12,34.6,0.6,46.8,1,61.4v355.2c-0.4,14.6,11,26.7,25.6,27.2h165l-17.5,51.2h-11c-4.7,0-8.5,3.8-8.5,8.5s3.8,8.5,8.5,8.5
				h187.7c4.7,0,8.5-3.8,8.5-8.5s-3.8-8.5-8.5-8.5h-11l-17.5-51.2h165c14.6-0.5,26-12.6,25.6-27.2L513,61.4L513,61.4z M60.7,42.7
				c0-14.1,11.5-25.6,25.6-25.6h213.3c14.1,0,25.6,11.5,25.6,25.6v128c0,14.1-11.5,25.6-25.6,25.6H163.1c-2.3,0-4.4,0.9-6,2.5
				l-45.2,45.2v-39.1c0-4.7-3.8-8.5-8.5-8.5h-8.5c-18.8,0-34.1-15.3-34.1-34.1L60.7,42.7L60.7,42.7z M192.1,494.9l17.5-51.2h94.7
				l17.5,51.2H192.1z M487.4,426.7H26.6c-5.1-0.5-8.9-5-8.5-10.2v-41h477.9v41C496.3,421.6,492.5,426.1,487.4,426.7z M495.9,61.4
				v297H18.1v-297c-0.3-5.1,3.4-9.6,8.5-10.2h17.1v110.9c0,28.3,22.9,51.2,51.2,51.2V256h-8.5c-4.7,0-8.5,3.8-8.5,8.5
				s3.8,8.5,8.5,8.5h110.9c4.7,0,8.5-3.8,8.5-8.5s-3.8-8.5-8.5-8.5H124l42.7-42.7h133c23.6,0,42.6-19.1,42.7-42.7V51.2h145.1
				C492.5,51.8,496.3,56.2,495.9,61.4z"/>
			<path class="st0" d="M123,142.6c3.3,3.3,8.7,3.3,12-0.1s3.3-8.7,0.1-12l-28.1-28.1L135,74.3c3.3-3.3,3.3-8.7,0-12
				c-3.3-3.3-8.7-3.3-12,0L88.8,96.4c-1.6,1.6-2.5,3.8-2.5,6s0.9,4.4,2.5,6L123,142.6z"/>
			<path class="st0" d="M163.1,119.5c4.7,0,8.5-3.8,8.5-8.5V68.3c0-4.7-3.8-8.5-8.5-8.5s-8.5,3.8-8.5,8.5v42.7
				C154.6,115.7,158.4,119.5,163.1,119.5z"/>
			<path class="st0" d="M155.3,139.8c0.2,0.5,0.4,1,0.8,1.4c0.3,0.5,0.6,0.9,1,1.4c0.8,0.8,1.8,1.4,2.8,1.8c1,0.4,2.1,0.7,3.2,0.7
				c2.3,0,4.4-0.9,6.1-2.5c0.3-0.4,0.7-0.9,1-1.4c0.3-0.4,0.6-0.9,0.8-1.4c0.2-0.5,0.4-1,0.5-1.5c0.1-0.6,0.2-1.1,0.2-1.7
				c0-2.3-0.9-4.4-2.5-6.1c-2.5-2.3-6.1-3-9.3-1.8c-1,0.4-2,1-2.8,1.8c-1.6,1.6-2.4,3.8-2.5,6.1c0,0.6,0.1,1.1,0.2,1.7
				C154.9,138.8,155,139.3,155.3,139.8z"/>
			<path class="st0" d="M197.3,110.9h25.6c4.7,0,8.5-3.8,8.5-8.5s-3.8-8.5-8.5-8.5h-25.6c-4.7,0-8.5,3.8-8.5,8.5
				S192.6,110.9,197.3,110.9z"/>
			<path class="st0" d="M257,110.9h25.6c4.7,0,8.5-3.8,8.5-8.5s-3.8-8.5-8.5-8.5H257c-4.7,0-8.5,3.8-8.5,8.5S252.3,110.9,257,110.9z
				"/>
			<path class="st0" d="M52.2,256h-8.5c-4.7,0-8.5,3.8-8.5,8.5s3.8,8.5,8.5,8.5h8.5c4.7,0,8.5-3.8,8.5-8.5S56.9,256,52.2,256z"/>
			<path class="st0" d="M52.2,290.1h-8.5c-4.7,0-8.5,3.8-8.5,8.5s3.8,8.5,8.5,8.5h8.5c4.7,0,8.5-3.8,8.5-8.5S56.9,290.1,52.2,290.1z
				"/>
			<path class="st0" d="M52.2,324.3h-8.5c-4.7,0-8.5,3.8-8.5,8.5c0,4.7,3.8,8.5,8.5,8.5h8.5c4.7,0,8.5-3.8,8.5-8.5
				C60.7,328.1,56.9,324.3,52.2,324.3z"/>
			<path class="st0" d="M231.4,273.1h59.7c4.7,0,8.5-3.8,8.5-8.5s-3.8-8.5-8.5-8.5h-59.7c-4.7,0-8.5,3.8-8.5,8.5
				S226.7,273.1,231.4,273.1z"/>
			<path class="st0" d="M325.3,273.1h25.6c4.7,0,8.5-3.8,8.5-8.5s-3.8-8.5-8.5-8.5h-25.6c-4.7,0-8.5,3.8-8.5,8.5
				S320.6,273.1,325.3,273.1z"/>
			<path class="st0" d="M385,273.1h34.1c4.7,0,8.5-3.8,8.5-8.5s-3.8-8.5-8.5-8.5H385c-4.7,0-8.5,3.8-8.5,8.5S380.3,273.1,385,273.1z
				"/>
			<path class="st0" d="M470.3,256h-17.1c-4.7,0-8.5,3.8-8.5,8.5s3.8,8.5,8.5,8.5h17.1c4.7,0,8.5-3.8,8.5-8.5S475.1,256,470.3,256z"
				/>
			<path class="st0" d="M111.9,307.2h51.2c4.7,0,8.5-3.8,8.5-8.5s-3.8-8.5-8.5-8.5h-51.2c-4.7,0-8.5,3.8-8.5,8.5
				S107.2,307.2,111.9,307.2z"/>
			<path class="st0" d="M248.5,298.7c0-4.7-3.8-8.5-8.5-8.5h-42.7c-4.7,0-8.5,3.8-8.5,8.5s3.8,8.5,8.5,8.5h42.7
				C244.7,307.2,248.5,303.4,248.5,298.7z"/>
			<path class="st0" d="M316.7,298.7c0-4.7-3.8-8.5-8.5-8.5h-34.1c-4.7,0-8.5,3.8-8.5,8.5s3.8,8.5,8.5,8.5h34.1
				C312.9,307.2,316.7,303.4,316.7,298.7z"/>
			<path class="st0" d="M393.5,298.7c0-4.7-3.8-8.5-8.5-8.5h-42.7c-4.7,0-8.5,3.8-8.5,8.5s3.8,8.5,8.5,8.5H385
				C389.7,307.2,393.5,303.4,393.5,298.7z"/>
			<path class="st0" d="M470.3,290.1h-51.2c-4.7,0-8.5,3.8-8.5,8.5s3.8,8.5,8.5,8.5h51.2c4.7,0,8.5-3.8,8.5-8.5
				S475.1,290.1,470.3,290.1z"/>
			<path class="st0" d="M120.5,324.3H86.3c-4.7,0-8.5,3.8-8.5,8.5c0,4.7,3.8,8.5,8.5,8.5h34.1c4.7,0,8.5-3.8,8.5-8.5
				C129,328.1,125.2,324.3,120.5,324.3z"/>
			<path class="st0" d="M188.7,324.3h-34.1c-4.7,0-8.5,3.8-8.5,8.5c0,4.7,3.8,8.5,8.5,8.5h34.1c4.7,0,8.5-3.8,8.5-8.5
				C197.3,328.1,193.5,324.3,188.7,324.3z"/>
			<path class="st0" d="M265.5,324.3h-42.7c-4.7,0-8.5,3.8-8.5,8.5c0,4.7,3.8,8.5,8.5,8.5h42.7c4.7,0,8.5-3.8,8.5-8.5
				C274.1,328.1,270.3,324.3,265.5,324.3z"/>
			<path class="st0" d="M325.3,324.3h-25.6c-4.7,0-8.5,3.8-8.5,8.5c0,4.7,3.8,8.5,8.5,8.5h25.6c4.7,0,8.5-3.8,8.5-8.5
				C333.8,328.1,330,324.3,325.3,324.3z"/>
			<path class="st0" d="M410.6,324.3h-51.2c-4.7,0-8.5,3.8-8.5,8.5c0,4.7,3.8,8.5,8.5,8.5h51.2c4.7,0,8.5-3.8,8.5-8.5
				C419.1,328.1,415.3,324.3,410.6,324.3z"/>
			<path class="st0" d="M470.3,324.3h-25.6c-4.7,0-8.5,3.8-8.5,8.5c0,4.7,3.8,8.5,8.5,8.5h25.6c4.7,0,8.5-3.8,8.5-8.5
				C478.9,328.1,475.1,324.3,470.3,324.3z"/>
		</g>
	</g>
</g>
</svg>
