<?xml version="1.0" encoding="iso-8859-1"?>
<!-- Generator: Adobe Illustrator 19.0.0, SVG Export Plug-In . SVG Version: 6.00 Build 0)  -->
<svg version="1.1" id="Capa_1" xmlns="http://www.w3.org/2000/svg" xmlns:xlink="http://www.w3.org/1999/xlink" x="0px" y="0px"
	 viewBox="0 0 512.022 512.022" style="enable-background:new 0 0 512.022 512.022;" xml:space="preserve">
<g transform="translate(-1)">
	<g>
		<g>
			<path d="M513.011,61.365c0.417-14.574-11.027-26.743-25.6-27.221H341.482c-4.08-19.85-21.539-34.106-41.804-34.133H86.344
				C66.08,0.039,48.62,14.294,44.54,34.144H26.611c-14.573,0.478-26.017,12.646-25.6,27.221v355.158
				c-0.417,14.574,11.027,26.743,25.6,27.221H191.61l-17.5,51.2h-10.965c-4.713,0-8.533,3.82-8.533,8.533s3.82,8.533,8.533,8.533
				h187.733c4.713,0,8.533-3.82,8.533-8.533s-3.82-8.533-8.533-8.533h-10.965l-17.5-51.2h164.999
				c14.573-0.478,26.017-12.646,25.6-27.221V61.365z M60.744,42.678c0.015-14.132,11.468-25.585,25.6-25.6h213.333
				c14.132,0.015,25.585,11.468,25.6,25.6v128c-0.015,14.132-11.468,25.585-25.6,25.6H163.144c-2.263,0.001-4.433,0.9-6.033,2.5
				l-45.167,45.166v-39.133c0-4.713-3.82-8.533-8.533-8.533h-8.533c-18.842-0.022-34.112-15.291-34.133-34.133V42.678z
				 M192.144,494.944l17.5-51.2h94.733l17.5,51.2H192.144z M487.411,426.678h-460.8c-5.107-0.55-8.871-5.029-8.533-10.154v-41.046
				h477.867v41.046C496.282,421.649,492.518,426.128,487.411,426.678z M495.944,61.365v297.046H18.078V61.365
				c-0.338-5.125,3.427-9.605,8.533-10.154h17.067v110.933c0.031,28.264,22.936,51.169,51.2,51.2v42.667h-8.533
				c-4.713,0-8.533,3.82-8.533,8.533s3.82,8.533,8.533,8.533h110.933c4.713,0,8.533-3.82,8.533-8.533s-3.82-8.533-8.533-8.533
				h-73.267l42.667-42.667h133c23.553-0.028,42.639-19.114,42.667-42.667V51.211h145.067
				C492.518,51.761,496.282,56.24,495.944,61.365z"/>
			<path d="M122.978,142.577c3.341,3.281,8.701,3.256,12.012-0.054s3.335-8.671,0.054-12.012l-28.1-28.1l28.1-28.1
				c3.296-3.338,3.279-8.711-0.038-12.029c-3.317-3.317-8.69-3.334-12.029-0.038L88.845,96.378c-1.601,1.6-2.5,3.77-2.5,6.033
				s0.899,4.433,2.5,6.033L122.978,142.577z"/>
			<path d="M163.144,119.478c4.713,0,8.533-3.82,8.533-8.533V68.278c0-4.713-3.82-8.533-8.533-8.533s-8.533,3.82-8.533,8.533v42.667
				C154.611,115.657,158.432,119.478,163.144,119.478z"/>
			<path d="M155.29,139.786c0.17,0.525,0.431,1.015,0.771,1.45c0.293,0.49,0.636,0.949,1.025,1.367
				c0.83,0.752,1.781,1.358,2.813,1.792c1.027,0.438,2.13,0.67,3.246,0.683c2.259-0.034,4.422-0.918,6.059-2.475
				c0.341-0.429,0.683-0.854,1.021-1.367c0.34-0.435,0.601-0.925,0.771-1.45c0.245-0.485,0.418-1.003,0.513-1.538
				c0.098-0.563,0.155-1.133,0.171-1.704c-0.033-2.259-0.917-4.422-2.475-6.059c-2.493-2.347-6.116-3.046-9.304-1.796
				c-1.033,0.434-1.985,1.041-2.813,1.796c-1.559,1.635-2.443,3.799-2.475,6.059c0.013,0.572,0.07,1.141,0.171,1.704
				C154.873,138.784,155.045,139.302,155.29,139.786z"/>
			<path d="M197.278,110.944h25.6c4.713,0,8.533-3.82,8.533-8.533s-3.82-8.533-8.533-8.533h-25.6c-4.713,0-8.533,3.82-8.533,8.533
				S192.565,110.944,197.278,110.944z"/>
			<path d="M257.011,110.944h25.6c4.713,0,8.533-3.82,8.533-8.533s-3.82-8.533-8.533-8.533h-25.6c-4.713,0-8.533,3.82-8.533,8.533
				S252.298,110.944,257.011,110.944z"/>
			<path d="M52.211,256.011h-8.533c-4.713,0-8.533,3.82-8.533,8.533s3.82,8.533,8.533,8.533h8.533c4.713,0,8.533-3.82,8.533-8.533
				S56.924,256.011,52.211,256.011z"/>
			<path d="M52.211,290.144h-8.533c-4.713,0-8.533,3.82-8.533,8.533s3.82,8.533,8.533,8.533h8.533c4.713,0,8.533-3.82,8.533-8.533
				S56.924,290.144,52.211,290.144z"/>
			<path d="M52.211,324.278h-8.533c-4.713,0-8.533,3.821-8.533,8.533c0,4.713,3.82,8.533,8.533,8.533h8.533
				c4.713,0,8.533-3.821,8.533-8.533C60.744,328.098,56.924,324.278,52.211,324.278z"/>
			<path d="M231.411,273.078h59.733c4.713,0,8.533-3.82,8.533-8.533s-3.82-8.533-8.533-8.533h-59.733
				c-4.713,0-8.533,3.82-8.533,8.533S226.698,273.078,231.411,273.078z"/>
			<path d="M325.278,273.078h25.6c4.713,0,8.533-3.82,8.533-8.533s-3.82-8.533-8.533-8.533h-25.6c-4.713,0-8.533,3.82-8.533,8.533
				S320.565,273.078,325.278,273.078z"/>
			<path d="M385.011,273.078h34.133c4.713,0,8.533-3.82,8.533-8.533s-3.82-8.533-8.533-8.533h-34.133
				c-4.713,0-8.533,3.82-8.533,8.533S380.298,273.078,385.011,273.078z"/>
			<path d="M470.344,256.011h-17.067c-4.713,0-8.533,3.82-8.533,8.533s3.821,8.533,8.533,8.533h17.067
				c4.713,0,8.533-3.82,8.533-8.533S475.057,256.011,470.344,256.011z"/>
			<path d="M111.944,307.211h51.2c4.713,0,8.533-3.82,8.533-8.533s-3.82-8.533-8.533-8.533h-51.2c-4.713,0-8.533,3.82-8.533,8.533
				S107.232,307.211,111.944,307.211z"/>
			<path d="M248.478,298.678c0-4.713-3.82-8.533-8.533-8.533h-42.667c-4.713,0-8.533,3.82-8.533,8.533s3.82,8.533,8.533,8.533
				h42.667C244.657,307.211,248.478,303.391,248.478,298.678z"/>
			<path d="M316.744,298.678c0-4.713-3.82-8.533-8.533-8.533h-34.133c-4.713,0-8.533,3.82-8.533,8.533s3.821,8.533,8.533,8.533
				h34.133C312.924,307.211,316.744,303.391,316.744,298.678z"/>
			<path d="M393.544,298.678c0-4.713-3.82-8.533-8.533-8.533h-42.667c-4.713,0-8.533,3.82-8.533,8.533s3.821,8.533,8.533,8.533
				h42.667C389.724,307.211,393.544,303.391,393.544,298.678z"/>
			<path d="M470.344,290.144h-51.2c-4.713,0-8.533,3.82-8.533,8.533s3.82,8.533,8.533,8.533h51.2c4.713,0,8.533-3.82,8.533-8.533
				S475.057,290.144,470.344,290.144z"/>
			<path d="M120.478,324.278H86.344c-4.713,0-8.533,3.821-8.533,8.533c0,4.713,3.82,8.533,8.533,8.533h34.133
				c4.713,0,8.533-3.821,8.533-8.533C129.011,328.098,125.191,324.278,120.478,324.278z"/>
			<path d="M188.744,324.278h-34.133c-4.713,0-8.533,3.821-8.533,8.533c0,4.713,3.821,8.533,8.533,8.533h34.133
				c4.713,0,8.533-3.821,8.533-8.533C197.278,328.098,193.457,324.278,188.744,324.278z"/>
			<path d="M265.544,324.278h-42.667c-4.713,0-8.533,3.821-8.533,8.533c0,4.713,3.82,8.533,8.533,8.533h42.667
				c4.713,0,8.533-3.821,8.533-8.533C274.078,328.098,270.257,324.278,265.544,324.278z"/>
			<path d="M325.278,324.278h-25.6c-4.713,0-8.533,3.821-8.533,8.533c0,4.713,3.82,8.533,8.533,8.533h25.6
				c4.713,0,8.533-3.821,8.533-8.533C333.811,328.098,329.991,324.278,325.278,324.278z"/>
			<path d="M410.611,324.278h-51.2c-4.713,0-8.533,3.821-8.533,8.533c0,4.713,3.82,8.533,8.533,8.533h51.2
				c4.713,0,8.533-3.821,8.533-8.533C419.144,328.098,415.324,324.278,410.611,324.278z"/>
			<path d="M470.344,324.278h-25.6c-4.713,0-8.533,3.821-8.533,8.533c0,4.713,3.82,8.533,8.533,8.533h25.6
				c4.713,0,8.533-3.821,8.533-8.533C478.878,328.098,475.057,324.278,470.344,324.278z"/>
		</g>
	</g>
</g>
<g>
</g>
<g>
</g>
<g>
</g>
<g>
</g>
<g>
</g>
<g>
</g>
<g>
</g>
<g>
</g>
<g>
</g>
<g>
</g>
<g>
</g>
<g>
</g>
<g>
</g>
<g>
</g>
<g>
</g>
</svg>
